<svg width="172" height="55" viewBox="0 0 172 55" fill="none" xmlns="http://www.w3.org/2000/svg">
<path d="M46.8276 16.3693H58.654V18.3384H49.0479V34.9971H46.8276V16.3693Z" fill="#292929"/>
<path d="M79.3193 35.3714C76.0472 35.3714 72.4829 32.8957 72.4829 28.3985C72.4829 23.9013 76.0472 21.4255 79.3193 21.4255C82.5915 21.4255 86.1558 23.9013 86.1558 28.3985C86.1558 32.8957 82.594 35.3714 79.3193 35.3714ZM84.0445 28.3985C84.0445 25.4436 81.9851 23.2873 79.3193 23.2873C76.6536 23.2873 74.5942 25.4436 74.5942 28.3985C74.5942 31.3534 76.6536 33.5072 79.3193 33.5072C81.9851 33.5072 84.0445 31.3534 84.0445 28.3985Z" fill="#292929"/>
<path d="M94.6382 34.9971L91.2595 25.7905V34.9971H89.2002V21.7974H91.4724L95.6951 33.1877L99.9177 21.7974H102.187V34.9971H100.128V25.7905L96.7495 34.9971H94.6382Z" fill="#292929"/>
<path d="M119.034 21.7974H128.905V23.6067H124.999V34.9971H122.94V23.6067H119.034V21.7974Z" fill="#292929"/>
<path d="M132.006 21.7974H134.065V24.1658C134.528 23.321 135.211 22.6191 136.039 22.1355C136.867 21.6519 137.811 21.4047 138.768 21.4205C142.199 21.4205 144.956 24.1084 144.956 28.3935C144.956 32.6786 142.105 35.3664 138.647 35.3664C136.667 35.3664 135.031 34.4605 134.083 32.8907V40.4302H132.023L132.006 21.7974ZM133.907 28.3985C133.907 31.4582 135.832 33.4547 138.362 33.4547C140.892 33.4547 142.817 31.4582 142.817 28.3985C142.817 25.3387 140.892 23.3422 138.362 23.3422C135.832 23.3422 133.907 25.3387 133.907 28.3985Z" fill="#292929"/>
<path d="M149.869 32.2044L156.255 21.7974H158.58V34.9971H156.52V24.5925L150.132 34.9971H147.81V21.7974H149.869V32.2044Z" fill="#292929"/>
<path d="M169.941 29.1995H167.592L164.374 34.9995H162.146L165.394 29.1197C163.466 28.7728 162.305 27.3727 162.305 25.4984C162.305 23.3696 163.862 21.7998 166.528 21.7998H172V34.9995H169.941V29.1995ZM169.941 23.5044H166.431C165.164 23.5044 164.265 24.1957 164.265 25.5009C164.265 26.8062 165.164 27.4975 166.431 27.4975H169.941V23.5044Z" fill="#292929"/>
<path d="M0 0V6.06702H2.04697V2.06394H33.3951V10.8612H13.5046V6.00712H11.4576V10.8612H7.17059V12.9252H11.4576V32.9206H2.04697V26.3096H6.75228V24.2456H2.04697V10.8463H0V34.9846H13.5046V12.9252H35.4421V0H0Z" fill="#47ACDA"/>
<path d="M35.3951 24.2481C35.199 22.3821 34.4707 20.6133 33.2983 19.1559C32.126 17.6985 30.5599 16.6149 28.7895 16.0362C27.0191 15.4576 25.1203 15.4086 23.3229 15.8954C21.5255 16.3821 19.9066 17.3836 18.6619 18.7787C17.4173 20.1739 16.6003 21.9028 16.3099 23.7563C16.0194 25.6098 16.268 27.5085 17.0254 29.2225C17.7829 30.9366 19.0168 32.3926 20.5778 33.4143C22.1388 34.4361 23.9601 34.9797 25.8212 34.9796V32.9156C24.3652 32.9161 22.9399 32.4939 21.7156 31.6994C20.4913 30.905 19.5198 29.7719 18.9171 28.4355C18.3145 27.0992 18.1062 25.6161 18.3172 24.1636C18.5282 22.7111 19.1495 21.3506 20.1069 20.2446C21.0643 19.1386 22.3173 18.334 23.7161 17.9269C25.1149 17.5198 26.6005 17.5274 27.9951 17.9488C29.3898 18.3703 30.6346 19.1877 31.5808 20.3034C32.527 21.4192 33.1345 22.786 33.3308 24.2406H21.7025V26.3046H35.4422V25.2713C35.4427 24.9279 35.4246 24.5846 35.3877 24.2431" fill="#47ACDA"/>
<path d="M67.3569 31.4133C66.5377 32.7011 65.3892 33.6145 63.409 33.6145C60.6863 33.6145 59.028 31.5131 58.8943 28.7429H69.7158V28.0241C69.7158 24.1658 67.3421 21.4255 63.409 21.4255C59.7656 21.4255 56.835 24.3255 56.835 28.3985C56.835 32.4715 59.7656 35.3714 63.3298 35.3714C66.2852 35.3714 68.1069 33.9339 69.3197 31.5131L69.1564 31.4133H67.3569ZM63.409 23.1775C65.4139 23.1775 67.5252 24.5352 67.6589 27.0358H59.0527C59.528 24.7723 61.0601 23.1775 63.409 23.1775Z" fill="#292929"/>
<path d="M115.207 31.4133C114.39 32.7011 113.239 33.6145 111.259 33.6145C108.536 33.6145 106.878 31.5131 106.744 28.7429H117.571V28.0241C117.571 24.1658 115.195 21.4255 111.262 21.4255C107.618 21.4255 104.69 24.3255 104.69 28.3985C104.69 32.4715 107.618 35.3714 111.182 35.3714C114.138 35.3714 115.959 33.9339 117.172 31.5131L117.009 31.4133H115.207ZM111.259 23.1775C113.264 23.1775 115.378 24.5352 115.509 27.0358H106.903C107.378 24.7723 108.91 23.1775 111.259 23.1775Z" fill="#292929"/>
<path d="M47.489 46.5097L49.5384 43.3102H50.0582V47.1361H49.6151V43.9366L47.5657 47.1361H47.0459V43.3102H47.489V46.5097Z" fill="#292929"/>
<path d="M51.6247 44.9224H53.6741V43.3102H54.1197V47.1336H53.6741V45.3092H51.6247V47.1336H51.1816V43.3102H51.6247V44.9224Z" fill="#292929"/>
<path d="M55.2437 43.3127H56.7882C57.5134 43.3127 57.9267 43.7595 57.9267 44.2661C57.9234 44.4567 57.8613 44.6414 57.749 44.7948C57.6368 44.9482 57.4801 45.0626 57.3005 45.1221C57.5173 45.1648 57.7126 45.2819 57.8534 45.4534C57.9942 45.6249 58.0717 45.8403 58.0728 46.063C58.0728 46.6645 57.5777 47.1361 56.7708 47.1361H55.2437V43.3127ZM55.6867 44.9624H56.803C56.8912 44.9731 56.9807 44.9646 57.0654 44.9375C57.1501 44.9104 57.2281 44.8653 57.294 44.8052C57.3599 44.7451 57.4123 44.6715 57.4476 44.5892C57.4829 44.507 57.5002 44.4181 57.4985 44.3285C57.501 44.2415 57.4851 44.1549 57.452 44.0745C57.4188 43.9941 57.3692 43.9217 57.3063 43.862C57.2434 43.8024 57.1686 43.7568 57.087 43.7284C57.0054 43.7 56.9187 43.6893 56.8327 43.6971H55.6917L55.6867 44.9624ZM55.6867 46.7493H56.8797C56.977 46.7575 57.0749 46.7453 57.1673 46.7135C57.2596 46.6816 57.3444 46.6307 57.4163 46.5641C57.4881 46.4975 57.5455 46.4166 57.5847 46.3264C57.6239 46.2363 57.6442 46.139 57.6442 46.0405C57.6442 45.9421 57.6239 45.8448 57.5847 45.7546C57.5455 45.6645 57.4881 45.5836 57.4163 45.517C57.3444 45.4503 57.2596 45.3995 57.1673 45.3676C57.0749 45.3357 56.977 45.3235 56.8797 45.3318H55.6917L55.6867 46.7493Z" fill="#292929"/>
<path d="M59.112 45.2618C59.1417 46.1328 59.6788 46.8591 60.5426 46.8591C60.8389 46.8658 61.13 46.7803 61.3763 46.6142C61.6225 46.448 61.812 46.2093 61.9188 45.9307L62.2381 46.1253C62.1001 46.4673 61.8609 46.7581 61.5531 46.9582C61.2453 47.1582 60.8838 47.2578 60.5179 47.2434C59.4858 47.2434 58.6689 46.4024 58.6689 45.2244C58.6689 44.0464 59.4957 43.2029 60.5426 43.2029C61.6738 43.2029 62.347 43.9965 62.347 45.1146V45.2618H59.112ZM59.112 44.8775H61.8644C61.8681 44.7035 61.836 44.5307 61.7703 44.3698C61.7046 44.2089 61.6066 44.0634 61.4825 43.9425C61.3584 43.8215 61.2109 43.7278 61.0491 43.6671C60.8874 43.6064 60.715 43.58 60.5426 43.5897C60.1902 43.5941 59.8512 43.7269 59.5883 43.9636C59.3254 44.2003 59.1562 44.5249 59.112 44.8775Z" fill="#292929"/>
<path d="M66.5823 46.1402C66.4409 46.4689 66.2071 46.7486 65.9097 46.9447C65.6123 47.1408 65.2644 47.2446 64.909 47.2433C63.7927 47.2433 62.9883 46.3873 62.9883 45.2218C62.98 44.9614 63.0235 44.7018 63.1161 44.4585C63.2086 44.2152 63.3485 43.993 63.5274 43.8049C63.7063 43.6168 63.9207 43.4667 64.158 43.3633C64.3952 43.2599 64.6506 43.2053 64.909 43.2028C65.26 43.1828 65.6086 43.2728 65.9069 43.4605C66.2051 43.6481 66.4384 43.9243 66.5748 44.251L66.2382 44.4681C66.1299 44.2082 65.9467 43.987 65.7124 43.8331C65.4782 43.6791 65.2035 43.5996 64.9239 43.6046C64.1071 43.6046 63.4388 44.2211 63.4388 45.2218C63.4388 46.2226 64.065 46.8415 64.9239 46.8415C65.612 46.8415 65.9857 46.4422 66.2531 45.9231L66.5823 46.1402Z" fill="#292929"/>
<path d="M66.9585 43.3102H69.7257V43.697H68.5649V47.1361H68.1194V43.697H66.9585V43.3102Z" fill="#292929"/>
<path d="M70.9953 46.5097L73.0447 43.3102H73.5645V47.1361H73.1215V43.9366L71.072 47.1361H70.5522V43.3102H70.9953V46.5097Z" fill="#292929"/>
<path d="M77.671 46.7493H77.9086V47.9522H77.4953V47.1361H74.6884V43.3127H75.1339V46.7493H77.228V43.3127H77.671V46.7493Z" fill="#292929"/>
<path d="M79.3317 46.5097L81.3812 43.3102H81.901V47.1361H81.4579V43.9366L79.4085 47.1361H78.8887V43.3102H79.3317V46.5097Z" fill="#292929"/>
<path d="M84.7451 47.2434C84.3461 47.2563 83.9523 47.1488 83.6143 46.9347C83.2762 46.7206 83.0092 46.4096 82.8476 46.0415C82.6859 45.6734 82.6369 45.2651 82.7068 44.8688C82.7768 44.4725 82.9625 44.1062 83.2401 43.817C83.5178 43.5278 83.8748 43.3287 84.2653 43.2453C84.6559 43.1619 85.0623 43.1979 85.4324 43.3489C85.8025 43.4998 86.1195 43.7587 86.3428 44.0923C86.566 44.426 86.6854 44.8193 86.6856 45.2219C86.7004 45.4858 86.6608 45.7498 86.5694 45.9975C86.4779 46.2452 86.3366 46.4711 86.1543 46.661C85.972 46.8509 85.7527 47.0007 85.5102 47.1009C85.2676 47.2012 85.0071 47.2497 84.7451 47.2434ZM86.245 45.2219C86.245 44.276 85.6015 43.5897 84.7451 43.5897C83.8887 43.5897 83.2476 44.276 83.2476 45.2219C83.2476 46.1677 83.8887 46.8566 84.7451 46.8566C85.6015 46.8566 86.245 46.1702 86.245 45.2219Z" fill="#292929"/>
<path d="M88.0344 44.9224H90.0839V43.3102H90.5269V47.1336H90.0839V45.3092H88.0344V47.1336H87.5913V43.3102H88.0344V44.9224Z" fill="#292929"/>
<path d="M92.0939 44.9224H94.1434V43.3102H94.5864V47.1336H94.1434V45.3092H92.0939V47.1336H91.6509V43.3102H92.0939V44.9224Z" fill="#292929"/>
<path d="M98.3264 47.1361C98.1525 46.8974 98.0651 46.6058 98.0789 46.31C97.9729 46.5816 97.7893 46.8154 97.5513 46.9816C97.3133 47.1478 97.0317 47.2389 96.7423 47.2434C95.9626 47.2434 95.4799 46.7443 95.4799 46.0779C95.4799 45.3467 96.069 44.9698 96.7423 44.86L98.0937 44.6379V44.4532C98.0937 43.8817 97.72 43.6047 97.1036 43.6047C96.4304 43.6047 96.0863 43.9591 96.0863 44.3209C96.0852 44.3606 96.0902 44.4002 96.1012 44.4382L95.7423 44.5605C95.7085 44.4661 95.691 44.3665 95.6903 44.266C95.6903 43.6746 96.2844 43.2029 97.1036 43.2029C98.0294 43.2029 98.5318 43.6746 98.5318 44.4058V46.1703C98.5046 46.5063 98.5853 46.8423 98.762 47.1286L98.3264 47.1361ZM98.0962 45.2144V45.0222L96.8215 45.2394C96.2547 45.3392 95.9254 45.6412 95.9254 46.0704C95.9254 46.4997 96.2621 46.8191 96.7819 46.8191C97.6457 46.8191 98.0962 45.9481 98.0962 45.2069" fill="#292929"/>
<path d="M101.745 45.3767H100.896L99.9179 47.1361H99.4229L100.413 45.3617C100.159 45.3451 99.9205 45.2302 99.7481 45.041C99.5757 44.8518 99.4822 44.6029 99.4872 44.346C99.4872 43.7445 99.9303 43.3127 100.641 43.3127H102.185V47.1361H101.742L101.745 45.3767ZM101.745 43.6971H100.584C100.496 43.6916 100.408 43.7043 100.325 43.7343C100.243 43.7644 100.167 43.8112 100.103 43.8719C100.039 43.9326 99.988 44.0058 99.9532 44.0871C99.9183 44.1684 99.9003 44.2561 99.9003 44.3447C99.9003 44.4333 99.9183 44.521 99.9532 44.6023C99.988 44.6836 100.039 44.7569 100.103 44.8175C100.167 44.8782 100.243 44.925 100.325 44.9551C100.408 44.9852 100.496 44.9978 100.584 44.9923H101.745V43.6971Z" fill="#292929"/>
<path d="M47.3278 51.0668V52.9261L48.9416 51.0668H49.4837L48.162 52.5792L49.7362 54.8902H49.2238L47.855 52.9336L47.3278 53.5425V54.8902H46.8848V51.0668H47.3278Z" fill="#292929"/>
<path d="M51.855 54.9999C51.456 55.0124 51.0625 54.9044 50.7248 54.69C50.387 54.4756 50.1205 54.1644 49.9592 53.7962C49.7979 53.4281 49.7493 53.0199 49.8195 52.6237C49.8897 52.2275 50.0756 51.8615 50.3534 51.5725C50.6312 51.2836 50.9881 51.0847 51.3786 51.0016C51.7692 50.9184 52.1754 50.9546 52.5454 51.1056C52.9153 51.2566 53.2322 51.5155 53.4553 51.8491C53.6785 52.1828 53.7978 52.576 53.798 52.9784C53.8128 53.2425 53.7731 53.5068 53.6815 53.7547C53.5899 54.0025 53.4484 54.2286 53.2658 54.4185C53.0833 54.6084 52.8637 54.7582 52.6208 54.8583C52.378 54.9583 52.1172 55.0066 51.855 54.9999ZM53.3525 52.9784C53.3525 52.0301 52.7114 51.3463 51.855 51.3463C50.9986 51.3463 50.355 52.0301 50.355 52.9784C50.355 53.9268 50.9986 54.6131 51.855 54.6131C52.7114 54.6131 53.3525 53.9268 53.3525 52.9784Z" fill="#292929"/>
<path d="M56.2432 54.8902L55.1418 52.0476V54.8902H54.6987V51.0668H55.1814L56.466 54.4759L57.7506 51.0668H58.2308V54.8902H57.7877V52.0626L56.6863 54.8902H56.2432Z" fill="#292929"/>
<path d="M62.3375 54.8902H61.8969V51.4536H59.8005V54.8902H59.3574V51.0668H62.3375V54.8902Z" fill="#292929"/>
<path d="M66.0872 54.8902C65.9122 54.6531 65.8247 54.3618 65.8397 54.0666C65.733 54.3382 65.5489 54.5719 65.3105 54.738C65.0722 54.9042 64.7903 54.9953 64.5006 55C63.7209 55 63.2383 54.5009 63.2383 53.8345C63.2383 53.1033 63.8274 52.7239 64.5006 52.6166L65.8545 52.3945V52.2073C65.8545 51.6383 65.4783 51.3613 64.8645 51.3613C64.1937 51.3613 63.8472 51.7157 63.8472 52.0775C63.8459 52.1166 63.8518 52.1555 63.8645 52.1923L63.5056 52.3171C63.4698 52.2231 63.4513 52.1233 63.4511 52.0226C63.4511 51.4312 64.0477 50.9595 64.8645 50.9595C65.7902 50.9595 66.2951 51.4312 66.2951 52.1624V53.9343C66.2667 54.2697 66.3475 54.6053 66.5253 54.8902H66.0872ZM65.857 52.971V52.7788L64.5798 52.996C64.013 53.0958 63.6838 53.3953 63.6838 53.827C63.6838 54.2588 64.0229 54.5757 64.5427 54.5757C65.4065 54.5757 65.857 53.7047 65.857 52.9635" fill="#292929"/>
<path d="M67.8225 52.679H69.8719V51.0668H70.3149V54.8902H69.8719V53.0633H67.8225V54.8902H67.3794V51.0668H67.8225V52.679Z" fill="#292929"/>
<path d="M71.8841 54.2662L73.9311 51.0668H74.4533V54.8902H74.0078V51.6932L71.9584 54.8902H71.441V51.0668H71.8841V54.2662Z" fill="#292929"/>
<path d="M77.7329 53.1332H76.8839L75.9062 54.8802H75.4112L76.4013 53.1082C76.1465 53.0916 75.908 52.9763 75.7355 52.7866C75.5631 52.5969 75.4699 52.3473 75.4755 52.09C75.4755 51.4885 75.9186 51.0568 76.629 51.0568H78.1735V54.8802H77.7304L77.7329 53.1332ZM77.7329 51.4536H76.5696C76.4819 51.4481 76.394 51.4608 76.3113 51.4908C76.2287 51.5209 76.153 51.5677 76.089 51.6284C76.0249 51.689 75.9739 51.7623 75.939 51.8436C75.9041 51.9249 75.8861 52.0126 75.8861 52.1012C75.8861 52.1898 75.9041 52.2775 75.939 52.3588C75.9739 52.4401 76.0249 52.5134 76.089 52.574C76.153 52.6347 76.2287 52.6815 76.3113 52.7116C76.394 52.7417 76.4819 52.7543 76.5696 52.7488H77.7329V51.4536Z" fill="#292929"/>
</svg>
