<svg width="40" height="40" viewBox="0 0 40 40" fill="none" xmlns="http://www.w3.org/2000/svg">
<path d="M3.33329 15H8.33329V35H3.33329C2.89127 35 2.46734 34.8244 2.15478 34.5118C1.84222 34.1993 1.66663 33.7754 1.66663 33.3333V16.6667C1.66663 16.2246 1.84222 15.8007 2.15478 15.4882C2.46734 15.1756 2.89127 15 3.33329 15ZM12.155 12.845L22.8216 2.17834C22.9634 2.03616 23.1517 1.94995 23.352 1.93556C23.5523 1.92116 23.751 1.97956 23.9116 2.1L25.3333 3.16667C25.7281 3.46308 26.0264 3.86976 26.1904 4.33543C26.3544 4.8011 26.3769 5.30491 26.255 5.78334L24.3333 13.3333H35C35.884 13.3333 36.7319 13.6845 37.357 14.3096C37.9821 14.9348 38.3333 15.7826 38.3333 16.6667V20.1733C38.3337 20.6089 38.2488 21.0404 38.0833 21.4433L32.925 33.9683C32.7991 34.2737 32.5854 34.5348 32.3109 34.7185C32.0364 34.9022 31.7136 35.0001 31.3833 35H13.3333C12.8913 35 12.4673 34.8244 12.1548 34.5118C11.8422 34.1993 11.6666 33.7754 11.6666 33.3333V14.0233C11.6667 13.5813 11.8424 13.1575 12.155 12.845Z" fill="#306FC7"/>
</svg>
