<svg width="40" height="40" viewBox="0 0 40 40" fill="none" xmlns="http://www.w3.org/2000/svg">
<path d="M34.9998 33.3334H38.3332V36.6667H1.6665V33.3334H4.99984V5.00004C4.99984 4.55801 5.17543 4.13409 5.48799 3.82153C5.80055 3.50897 6.22448 3.33337 6.6665 3.33337H33.3332C33.7752 3.33337 34.1991 3.50897 34.5117 3.82153C34.8242 4.13409 34.9998 4.55801 34.9998 5.00004V33.3334ZM13.3332 18.3334V21.6667H18.3332V18.3334H13.3332ZM13.3332 11.6667V15H18.3332V11.6667H13.3332ZM13.3332 25V28.3334H18.3332V25H13.3332ZM21.6665 25V28.3334H26.6665V25H21.6665ZM21.6665 18.3334V21.6667H26.6665V18.3334H21.6665ZM21.6665 11.6667V15H26.6665V11.6667H21.6665Z" fill="#306FC7"/>
</svg>
