<svg width="225" height="72" viewBox="0 0 225 72" fill="none" xmlns="http://www.w3.org/2000/svg">
<g clip-path="url(#clip0_107_518)">
<path d="M61.2568 21.4287H76.7274V24.0064H64.1612V45.8142H61.2568V21.4287Z" fill="white"/>
<path d="M103.761 46.3043C99.4804 46.3043 94.8179 43.0634 94.8179 37.1761C94.8179 31.2888 99.4804 28.0479 103.761 28.0479C108.041 28.0479 112.704 31.2888 112.704 37.1761C112.704 43.0634 108.045 46.3043 103.761 46.3043ZM109.942 37.1761C109.942 33.3079 107.248 30.4851 103.761 30.4851C100.274 30.4851 97.5798 33.3079 97.5798 37.1761C97.5798 41.0443 100.274 43.8638 103.761 43.8638C107.248 43.8638 109.942 41.0443 109.942 37.1761Z" fill="white"/>
<path d="M123.8 45.8143L119.38 33.762V45.8143H116.687V28.5347H119.659L125.183 43.4456L130.707 28.5347H133.676V45.8143H130.982V33.762L126.562 45.8143H123.8Z" fill="white"/>
<path d="M155.713 28.5347H168.626V30.9033H163.516V45.8143H160.822V30.9033H155.713V28.5347Z" fill="white"/>
<path d="M172.682 28.5348H175.376V31.6353C175.982 30.5293 176.874 29.6105 177.958 28.9775C179.042 28.3444 180.276 28.0208 181.528 28.0415C186.016 28.0415 189.623 31.5601 189.623 37.1697C189.623 42.7793 185.893 46.2979 181.369 46.2979C178.779 46.2979 176.639 45.112 175.399 43.057V52.9268H172.705L172.682 28.5348ZM175.169 37.1762C175.169 41.1817 177.688 43.7953 180.997 43.7953C184.306 43.7953 186.825 41.1817 186.825 37.1762C186.825 33.1708 184.306 30.5571 180.997 30.5571C177.688 30.5571 175.169 33.1708 175.169 37.1762Z" fill="white"/>
<path d="M196.05 42.1584L204.404 28.5347H207.444V45.8143H204.751V32.1938L196.394 45.8143H193.356V28.5347H196.05V42.1584Z" fill="white"/>
<path d="M222.306 38.225H219.234L215.024 45.8177H212.11L216.358 38.1204C213.836 37.6663 212.318 35.8335 212.318 33.3799C212.318 30.5931 214.354 28.5381 217.841 28.5381H225V45.8177H222.306V38.225ZM222.306 30.7695H217.715C216.057 30.7695 214.882 31.6745 214.882 33.3832C214.882 35.0919 216.057 35.9968 217.715 35.9968H222.306V30.7695Z" fill="white"/>
<path d="M0 0V7.94228H2.67772V2.70188H43.6854V14.2184H17.6659V7.86387H14.9881V14.2184H9.38013V16.9202H14.9881V43.0961H2.67772V34.4416H8.83293V31.7397H2.67772V14.1987H0V45.798H17.6659V16.9202H46.3631V0H0Z" fill="#47ACDA"/>
<path d="M46.3017 31.743C46.0451 29.3001 45.0923 26.9847 43.5588 25.0768C42.0252 23.1689 39.9765 21.7504 37.6605 20.9929C35.3446 20.2354 32.8608 20.1713 30.5095 20.8085C28.1583 21.4457 26.0405 22.7567 24.4123 24.5831C22.7841 26.4094 21.7154 28.6727 21.3355 31.0992C20.9555 33.5256 21.2807 36.0111 22.2715 38.255C23.2624 40.4988 24.8765 42.4049 26.9185 43.7424C28.9606 45.0799 31.343 45.7917 33.7776 45.7915V43.0896C31.873 43.0902 30.0085 42.5375 28.407 41.4975C26.8054 40.4574 25.5345 38.9741 24.7461 37.2247C23.9578 35.4753 23.6853 33.5338 23.9613 31.6324C24.2373 29.7309 25.0501 27.9498 26.3025 26.502C27.5549 25.0542 29.194 24.0009 31.0239 23.4679C32.8537 22.935 34.797 22.9449 36.6214 23.4967C38.4458 24.0484 40.0742 25.1185 41.312 26.5791C42.5497 28.0397 43.3445 29.829 43.6013 31.7332H28.3897V34.4351H46.3632V33.0825C46.3639 32.6328 46.3402 32.1835 46.292 31.7365" fill="#47ACDA"/>
<path d="M88.1123 41.1228C87.0406 42.8087 85.5382 44.0044 82.9479 44.0044C79.3862 44.0044 77.2168 41.2535 77.042 37.6271H91.198V36.6861C91.198 31.6352 88.0929 28.048 82.9479 28.048C78.1817 28.048 74.3481 31.8443 74.3481 37.1762C74.3481 42.5081 78.1817 46.3044 82.8443 46.3044C86.7103 46.3044 89.0934 44.4226 90.6799 41.2535L90.4662 41.1228H88.1123ZM82.9479 30.3415C85.5706 30.3415 88.3325 32.1188 88.5073 35.3924H77.2492C77.8709 32.4291 79.8751 30.3415 82.9479 30.3415Z" fill="white"/>
<path d="M150.707 41.1227C149.638 42.8085 148.133 44.0043 145.543 44.0043C141.981 44.0043 139.812 41.2534 139.637 37.6269H153.799V36.686C153.799 31.6351 150.691 28.0479 145.546 28.0479C140.78 28.0479 136.949 31.8442 136.949 37.1761C136.949 42.508 140.78 46.3043 145.442 46.3043C149.308 46.3043 151.691 44.4225 153.278 41.2534L153.064 41.1227H150.707ZM145.543 30.3413C148.165 30.3413 150.93 32.1186 151.102 35.3923H139.844C140.466 32.429 142.47 30.3413 145.543 30.3413Z" fill="white"/>
<path d="M62.1221 60.8854L64.803 56.697H65.483V61.7055H64.9034V57.5171L62.2224 61.7055H61.5425V56.697H62.1221V60.8854Z" fill="white"/>
<path d="M67.5322 58.8076H70.2132V56.697H70.796V61.7022H70.2132V59.314H67.5322V61.7022H66.9526V56.697H67.5322V58.8076Z" fill="white"/>
<path d="M72.2666 56.7002H74.287C75.2357 56.7002 75.7765 57.285 75.7765 57.9482C75.772 58.1977 75.6908 58.4396 75.544 58.6404C75.3972 58.8412 75.1922 58.9909 74.9573 59.0688C75.2408 59.1247 75.4964 59.278 75.6805 59.5025C75.8647 59.7271 75.9661 60.0091 75.9675 60.3005C75.9675 61.0879 75.3199 61.7054 74.2644 61.7054H72.2666V56.7002ZM72.8462 58.8597H74.3065C74.4219 58.8738 74.5389 58.8627 74.6497 58.8272C74.7605 58.7917 74.8625 58.7326 74.9487 58.6539C75.035 58.5753 75.1035 58.4789 75.1496 58.3712C75.1958 58.2636 75.2185 58.1472 75.2163 58.0299C75.2195 57.916 75.1987 57.8026 75.1554 57.6974C75.112 57.5921 75.0471 57.4973 74.9648 57.4192C74.8825 57.3411 74.7847 57.2815 74.678 57.2443C74.5712 57.2071 74.4578 57.1931 74.3453 57.2033H72.8527L72.8462 58.8597ZM72.8462 61.199H74.4068C74.5341 61.2098 74.6622 61.1938 74.783 61.152C74.9038 61.1103 75.0147 61.0437 75.1087 60.9565C75.2027 60.8693 75.2777 60.7634 75.329 60.6454C75.3804 60.5274 75.4069 60.4 75.4069 60.2711C75.4069 60.1423 75.3804 60.0148 75.329 59.8969C75.2777 59.7789 75.2027 59.6729 75.1087 59.5857C75.0147 59.4985 74.9038 59.4319 74.783 59.3902C74.6622 59.3485 74.5341 59.3325 74.4068 59.3433H72.8527L72.8462 61.199Z" fill="white"/>
<path d="M77.3268 59.2519C77.3656 60.3921 78.0682 61.3428 79.1983 61.3428C79.5858 61.3516 79.9666 61.2397 80.2887 61.0222C80.6109 60.8047 80.8587 60.4923 80.9985 60.1274L81.4162 60.3823C81.2356 60.83 80.9227 61.2107 80.52 61.4726C80.1174 61.7344 79.6446 61.8648 79.1659 61.8459C77.8157 61.8459 76.7472 60.7449 76.7472 59.2029C76.7472 57.6608 77.8286 56.5565 79.1983 56.5565C80.678 56.5565 81.5587 57.5955 81.5587 59.0591V59.2519H77.3268ZM77.3268 58.7487H80.9273C80.9321 58.521 80.8902 58.2947 80.8042 58.0841C80.7183 57.8734 80.5901 57.683 80.4278 57.5247C80.2654 57.3664 80.0724 57.2437 79.8608 57.1642C79.6492 57.0847 79.4237 57.0503 79.1983 57.0629C78.7372 57.0687 78.2938 57.2426 77.9498 57.5524C77.6059 57.8622 77.3846 58.2872 77.3268 58.7487Z" fill="white"/>
<path d="M87.0987 60.4019C86.9138 60.8322 86.6079 61.1984 86.2188 61.455C85.8298 61.7117 85.3747 61.8476 84.9099 61.846C83.4496 61.846 82.3973 60.7254 82.3973 59.1996C82.3865 58.8587 82.4433 58.5189 82.5644 58.2004C82.6855 57.8819 82.8685 57.591 83.1025 57.3448C83.3366 57.0986 83.617 56.902 83.9274 56.7667C84.2378 56.6313 84.5718 56.5599 84.9099 56.5566C85.3691 56.5303 85.825 56.6482 86.2152 56.8938C86.6053 57.1395 86.9106 57.501 87.089 57.9287L86.6486 58.213C86.5069 57.8727 86.2673 57.5831 85.9609 57.3816C85.6544 57.1801 85.2951 57.076 84.9293 57.0826C83.8608 57.0826 82.9866 57.8895 82.9866 59.1996C82.9866 60.5097 83.8058 61.32 84.9293 61.32C85.8294 61.32 86.3184 60.7972 86.6681 60.1177L87.0987 60.4019Z" fill="white"/>
<path d="M87.5908 56.697H91.2108V57.2034H89.6922V61.7055H89.1094V57.2034H87.5908V56.697Z" fill="white"/>
<path d="M92.8716 60.8854L95.5525 56.697H96.2325V61.7055H95.6529V57.5171L92.9719 61.7055H92.292V56.697H92.8716V60.8854Z" fill="white"/>
<path d="M101.605 61.199H101.916V62.7737H101.375V61.7054H97.7031V56.7002H98.2859V61.199H101.025V56.7002H101.605V61.199Z" fill="white"/>
<path d="M103.777 60.8854L106.458 56.697H107.138V61.7055H106.558V57.5171L103.877 61.7055H103.197V56.697H103.777V60.8854Z" fill="white"/>
<path d="M110.858 61.846C110.336 61.8629 109.821 61.7222 109.379 61.4419C108.937 61.1616 108.587 60.7544 108.376 60.2726C108.165 59.7908 108.1 59.2562 108.192 58.7374C108.283 58.2186 108.526 57.7392 108.89 57.3606C109.253 56.9819 109.72 56.7213 110.231 56.6121C110.742 56.5029 111.273 56.5501 111.757 56.7477C112.241 56.9452 112.656 57.2842 112.948 57.721C113.24 58.1578 113.396 58.6727 113.397 59.1997C113.416 59.5451 113.364 59.8908 113.245 60.215C113.125 60.5393 112.94 60.835 112.702 61.0836C112.463 61.3322 112.176 61.5283 111.859 61.6595C111.542 61.7907 111.201 61.8542 110.858 61.846ZM112.82 59.1997C112.82 57.9614 111.979 57.063 110.858 57.063C109.738 57.063 108.899 57.9614 108.899 59.1997C108.899 60.4379 109.738 61.3396 110.858 61.3396C111.979 61.3396 112.82 60.4412 112.82 59.1997Z" fill="white"/>
<path d="M115.161 58.8076H117.842V56.697H118.422V61.7022H117.842V59.314H115.161V61.7022H114.582V56.697H115.161V58.8076Z" fill="white"/>
<path d="M120.472 58.8076H123.153V56.697H123.732V61.7022H123.153V59.314H120.472V61.7022H119.892V56.697H120.472V58.8076Z" fill="white"/>
<path d="M128.624 61.7053C128.397 61.3929 128.283 61.0112 128.301 60.6239C128.162 60.9795 127.922 61.2855 127.611 61.5031C127.299 61.7206 126.931 61.8399 126.552 61.8458C125.532 61.8458 124.901 61.1924 124.901 60.3201C124.901 59.3628 125.671 58.8695 126.552 58.7257L128.32 58.435V58.1932C128.32 57.445 127.831 57.0824 127.025 57.0824C126.144 57.0824 125.694 57.5463 125.694 58.02C125.693 58.0719 125.699 58.1237 125.714 58.1736L125.244 58.3337C125.2 58.21 125.177 58.0796 125.176 57.9482C125.176 57.1739 125.953 56.5564 127.025 56.5564C128.236 56.5564 128.893 57.1739 128.893 58.1311V60.441C128.858 60.8809 128.963 61.3207 129.194 61.6955L128.624 61.7053ZM128.323 59.1897V58.9381L126.656 59.2223C125.914 59.353 125.484 59.7483 125.484 60.3103C125.484 60.8722 125.924 61.2904 126.604 61.2904C127.734 61.2904 128.323 60.1502 128.323 59.1799" fill="white"/>
<path d="M133.096 59.4021H131.986L130.707 61.7054H130.059L131.354 59.3825C131.022 59.3607 130.71 59.2103 130.485 58.9626C130.259 58.715 130.137 58.3891 130.143 58.0528C130.143 57.2654 130.723 56.7002 131.652 56.7002H133.673V61.7054H133.093L133.096 59.4021ZM133.096 57.2033H131.578C131.463 57.1961 131.348 57.2127 131.24 57.2521C131.132 57.2914 131.033 57.3527 130.949 57.4322C130.865 57.5116 130.798 57.6075 130.753 57.7139C130.707 57.8204 130.684 57.9351 130.684 58.0511C130.684 58.1671 130.707 58.2819 130.753 58.3883C130.798 58.4948 130.865 58.5907 130.949 58.6701C131.033 58.7495 131.132 58.8108 131.24 58.8502C131.348 58.8895 131.463 58.9061 131.578 58.8989H133.096V57.2033Z" fill="white"/>
<path d="M61.9116 66.8511V69.2851L64.0227 66.8511H64.7318L63.0028 68.8309L65.0621 71.8562H64.3918L62.6013 69.2949L61.9116 70.092V71.8562H61.332V66.8511H61.9116Z" fill="white"/>
<path d="M67.8335 72C67.3116 72.0163 66.7969 71.875 66.355 71.5943C65.9132 71.3136 65.5645 70.9062 65.3535 70.4243C65.1426 69.9424 65.0789 69.4079 65.1708 68.8893C65.2627 68.3707 65.5059 67.8916 65.8692 67.5133C66.2326 67.135 66.6996 66.8747 67.2104 66.7658C67.7212 66.6569 68.2527 66.7043 68.7366 66.902C69.2206 67.0996 69.6351 67.4386 69.927 67.8753C70.2189 68.3121 70.375 68.8269 70.3752 69.3537C70.3946 69.6994 70.3427 70.0454 70.2229 70.3699C70.1031 70.6943 69.9179 70.9902 69.6791 71.2389C69.4403 71.4875 69.153 71.6835 68.8353 71.8145C68.5177 71.9455 68.1766 72.0087 67.8335 72ZM69.7924 69.3537C69.7924 68.1122 68.9538 67.217 67.8335 67.217C66.7132 67.217 65.8714 68.1122 65.8714 69.3537C65.8714 70.5952 66.7132 71.4936 67.8335 71.4936C68.9538 71.4936 69.7924 70.5952 69.7924 69.3537Z" fill="white"/>
<path d="M73.5741 71.8562L72.1333 68.135V71.8562H71.5537V66.8511H72.1851L73.8656 71.3139L75.546 66.8511H76.1742V71.8562H75.5946V68.1546L74.1537 71.8562H73.5741Z" fill="white"/>
<path d="M81.5463 71.8562H80.97V67.3575H78.2275V71.8562H77.6479V66.8511H81.5463V71.8562Z" fill="white"/>
<path d="M86.4514 71.8564C86.2224 71.5459 86.1079 71.1647 86.1276 70.7782C85.9881 71.1338 85.7472 71.4397 85.4354 71.6572C85.1236 71.8747 84.7549 71.994 84.3759 72.0001C83.356 72.0001 82.7246 71.3467 82.7246 70.4744C82.7246 69.5171 83.4952 69.0205 84.3759 68.88L86.147 68.5893V68.3442C86.147 67.5993 85.6549 67.2367 84.8519 67.2367C83.9744 67.2367 83.5211 67.7006 83.5211 68.1743C83.5194 68.2254 83.5271 68.2764 83.5438 68.3246L83.0743 68.488C83.0275 68.3649 83.0033 68.2343 83.0031 68.1025C83.0031 67.3282 83.7834 66.7107 84.8519 66.7107C86.0629 66.7107 86.7234 67.3282 86.7234 68.2854V70.6051C86.6862 71.0441 86.7919 71.4834 87.0245 71.8564H86.4514ZM86.1503 69.344V69.0924L84.4795 69.3766C83.7381 69.5073 83.3074 69.8994 83.3074 70.4646C83.3074 71.0298 83.751 71.4447 84.431 71.4447C85.561 71.4447 86.1503 70.3045 86.1503 69.3342" fill="white"/>
<path d="M88.7212 68.9616H91.4022V66.8511H91.9818V71.8562H91.4022V69.4647H88.7212V71.8562H88.1417V66.8511H88.7212V68.9616Z" fill="white"/>
<path d="M94.0342 71.0395L96.7119 66.8511H97.3951V71.8562H96.8123V67.6711L94.1313 71.8562H93.4546V66.8511H94.0342V71.0395Z" fill="white"/>
<path d="M101.686 69.5561H100.575L99.296 71.8431H98.6484L99.9436 69.5234C99.6104 69.5016 99.2984 69.3508 99.0727 69.1024C98.8471 68.854 98.7252 68.5273 98.7326 68.1905C98.7326 67.4031 99.3122 66.8379 100.241 66.8379H102.262V71.8431H101.682L101.686 69.5561ZM101.686 67.3574H100.164C100.049 67.3502 99.9341 67.3668 99.8259 67.4061C99.7178 67.4455 99.6188 67.5067 99.535 67.5862C99.4513 67.6656 99.3845 67.7615 99.3389 67.868C99.2933 67.9744 99.2697 68.0892 99.2697 68.2052C99.2697 68.3212 99.2933 68.4359 99.3389 68.5424C99.3845 68.6488 99.4513 68.7447 99.535 68.8241C99.6188 68.9036 99.7178 68.9649 99.8259 69.0042C99.9341 69.0436 100.049 69.0602 100.164 69.053H101.686V67.3574Z" fill="white"/>
</g>
<defs>
<clipPath id="clip0_107_518">
<rect width="225" height="72" fill="white"/>
</clipPath>
</defs>
</svg>
