<svg width="40" height="40" viewBox="0 0 40 40" fill="none" xmlns="http://www.w3.org/2000/svg">
<path d="M19.9998 31.6666H23.3332V9.99997L33.9898 14.5666C34.2898 14.6952 34.5455 14.9091 34.725 15.1817C34.9046 15.4543 35.0001 15.7736 34.9998 16.1V31.6666H38.3332V35H1.6665V31.6666H4.99984V9.41664C4.9998 9.09417 5.09331 8.77861 5.26903 8.50822C5.44475 8.23784 5.69514 8.02423 5.98984 7.89331L18.8282 2.18664C18.9552 2.13021 19.0943 2.10645 19.2328 2.11751C19.3714 2.12857 19.5049 2.17411 19.6214 2.24998C19.7378 2.32584 19.8335 2.42963 19.8996 2.55189C19.9657 2.67414 20.0001 2.81099 19.9998 2.94997V31.6666Z" fill="#306FC7"/>
</svg>
