<svg width="40" height="40" viewBox="0 0 40 40" fill="none" xmlns="http://www.w3.org/2000/svg">
<path d="M35 9.89498C32.0458 13.2499 28.0517 15.5169 23.6567 16.3333C23.298 15.6768 22.7692 15.1289 22.1258 14.7472C21.4824 14.3655 20.7481 14.1641 20 14.1641C19.2519 14.1641 18.5176 14.3655 17.8742 14.7472C17.2308 15.1289 16.702 15.6768 16.3433 16.3333C11.9483 15.5169 7.95418 13.2499 5 9.89498V4.99998C5 4.55795 5.17559 4.13403 5.48816 3.82147C5.80072 3.50891 6.22464 3.33331 6.66667 3.33331H33.3333C33.7754 3.33331 34.1993 3.50891 34.5118 3.82147C34.8244 4.13403 35 4.55795 35 4.99998V9.89498ZM35 14.54V35C35 35.442 34.8244 35.8659 34.5118 36.1785C34.1993 36.4911 33.7754 36.6666 33.3333 36.6666H6.66667C6.22464 36.6666 5.80072 36.4911 5.48816 36.1785C5.17559 35.8659 5 35.442 5 35V14.54C8.16199 17.201 11.9764 18.9706 16.05 19.6666C16.3287 20.4934 16.8597 21.2119 17.5684 21.7209C18.277 22.2299 19.1275 22.5036 20 22.5036C20.8725 22.5036 21.723 22.2299 22.4316 21.7209C23.1403 21.2119 23.6713 20.4934 23.95 19.6666C28.0236 18.9706 31.838 17.201 35 14.54Z" fill="#306FC7"/>
</svg>
