<svg width="18" height="15" viewBox="0 0 18 15" fill="none" xmlns="http://www.w3.org/2000/svg">
<path d="M1.19158 6.64734C5.84445 4.57755 8.94709 3.21302 10.4995 2.55374C14.932 0.671377 15.853 0.344391 16.4533 0.333479C16.5853 0.331219 16.8806 0.364628 17.0718 0.523059C17.2333 0.656834 17.2777 0.837546 17.2989 0.96438C17.3202 1.09121 17.3467 1.38014 17.3256 1.60591C17.0854 4.18272 16.0461 10.436 15.5174 13.322C15.2936 14.5432 14.8531 14.9527 14.4266 14.9928C13.4997 15.0799 12.7959 14.3674 11.8982 13.7665C10.4934 12.8263 9.69983 12.2411 8.33628 11.3236C6.76046 10.2634 7.782 9.68061 8.68006 8.72825C8.91508 8.47901 12.9989 4.6864 13.0779 4.34235C13.0878 4.29932 13.097 4.13893 13.0037 4.05424C12.9103 3.96954 12.7726 3.99851 12.6732 4.02154C12.5323 4.05419 10.2882 5.56864 5.94088 8.56488C5.3039 9.01148 4.72694 9.22907 4.21001 9.21767C3.64013 9.2051 2.54391 8.88868 1.72898 8.61821C0.729438 8.28647 -0.0649766 8.11108 0.00419916 7.54768C0.0402301 7.25423 0.436023 6.95411 1.19158 6.64734Z" fill="white"/>
</svg>
