<svg width="19" height="19" viewBox="0 0 19 19" fill="none" xmlns="http://www.w3.org/2000/svg">
<path d="M16.1671 2.8077C14.4518 1.04193 12.0806 0.083374 9.65902 0.083374C4.51307 0.083374 0.376134 4.27076 0.426585 9.36626C0.426585 10.9807 0.880639 12.5446 1.6374 13.9572L0.325684 18.75L5.21938 17.4888C6.58154 18.2455 8.09505 18.5987 9.60857 18.5987C14.7041 18.5987 18.841 14.4113 18.841 9.31581C18.841 6.84373 17.8824 4.52301 16.1671 2.8077ZM9.65902 17.0347C8.29686 17.0347 6.93469 16.6816 5.77433 15.9753L5.47163 15.8239L2.5455 16.5807L3.30226 13.705L3.10046 13.4023C0.880639 9.82031 1.9401 5.07797 5.57253 2.85815C9.20496 0.638329 13.8969 1.69779 16.1167 5.33022C18.3365 8.96265 17.277 13.6545 13.6446 15.8744C12.4842 16.6311 11.0716 17.0347 9.65902 17.0347ZM14.0987 11.4347L13.5437 11.1825C13.5437 11.1825 12.7365 10.8293 12.232 10.5771C12.1815 10.5771 12.1311 10.5266 12.0806 10.5266C11.9293 10.5266 11.8284 10.5771 11.7275 10.6275C11.7275 10.6275 11.677 10.678 10.9707 11.4852C10.9203 11.5861 10.8194 11.6365 10.7185 11.6365H10.668C10.6176 11.6365 10.5167 11.5861 10.4662 11.5356L10.214 11.4347C9.65902 11.1825 9.15451 10.8798 8.75091 10.4762C8.65001 10.3753 8.49866 10.2744 8.39776 10.1735C8.0446 9.82031 7.69145 9.41671 7.4392 8.96265L7.38875 8.86175C7.3383 8.8113 7.3383 8.76085 7.28785 8.65995C7.28785 8.55905 7.28785 8.45815 7.3383 8.4077C7.3383 8.4077 7.5401 8.15545 7.69145 8.0041C7.79235 7.90319 7.8428 7.75184 7.9437 7.65094C8.0446 7.49959 8.09505 7.29779 8.0446 7.14644C7.99415 6.89418 7.38875 5.53202 7.2374 5.22932C7.1365 5.07797 7.03559 5.02752 6.88424 4.97707H6.73289C6.63199 4.97707 6.48064 4.97707 6.32929 4.97707C6.22839 4.97707 6.12749 5.02752 6.02659 5.02752L5.97613 5.07797C5.87523 5.12842 5.77433 5.22932 5.67343 5.27977C5.57253 5.38067 5.52208 5.48157 5.42118 5.58247C5.06803 6.03653 4.86622 6.59148 4.86622 7.14644C4.86622 7.55004 4.96713 7.95364 5.11848 8.3068L5.16893 8.45815C5.62298 9.41671 6.22839 10.2744 7.03559 11.0311L7.2374 11.2329C7.38875 11.3843 7.5401 11.4852 7.641 11.6365C8.70046 12.5446 9.91127 13.2005 11.2734 13.5536C11.4248 13.6041 11.6266 13.6041 11.7779 13.6545C11.9293 13.6545 12.1311 13.6545 12.2824 13.6545C12.5347 13.6545 12.8374 13.5536 13.0392 13.4527C13.1905 13.3518 13.2915 13.3518 13.3924 13.2509L13.4933 13.15C13.5942 13.0491 13.6951 12.9987 13.796 12.8978C13.8969 12.7969 13.9978 12.696 14.0482 12.5951C14.1491 12.3933 14.1996 12.141 14.25 11.8888C14.25 11.7879 14.25 11.6365 14.25 11.5356C14.25 11.5356 14.1996 11.4852 14.0987 11.4347Z" fill="white"/>
</svg>
