<svg width="16" height="16" viewBox="0 0 16 16" fill="none" xmlns="http://www.w3.org/2000/svg">
<path d="M7.33366 11.9587C5.9888 11.7876 4.75956 11.1108 3.89578 10.0659C3.03201 9.02097 2.59851 7.68637 2.68341 6.33333C2.7683 4.98029 3.36521 3.71034 4.35282 2.7816C5.34043 1.85286 6.64463 1.33503 8.00033 1.33334C9.35769 1.33233 10.6644 1.8489 11.6541 2.7778C12.6438 3.70669 13.2422 4.97801 13.3272 6.3327C13.4122 7.6874 12.9774 9.02353 12.1116 10.0689C11.2457 11.1142 10.0138 11.79 8.66699 11.9587V13.3413C11.2977 13.4027 13.3337 13.8233 13.3337 14.3333C13.3337 14.8853 10.9457 15.3333 8.00033 15.3333C5.05499 15.3333 2.66699 14.8853 2.66699 14.3333C2.66699 13.8233 4.70299 13.4027 7.33366 13.3413V11.9587ZM8.00033 8.00001C8.35395 8.00001 8.69309 7.85954 8.94314 7.60949C9.19318 7.35944 9.33366 7.0203 9.33366 6.66668C9.33366 6.31306 9.19318 5.97392 8.94314 5.72387C8.69309 5.47382 8.35395 5.33335 8.00033 5.33335C7.6467 5.33335 7.30757 5.47382 7.05752 5.72387C6.80747 5.97392 6.66699 6.31306 6.66699 6.66668C6.66699 7.0203 6.80747 7.35944 7.05752 7.60949C7.30757 7.85954 7.6467 8.00001 8.00033 8.00001Z" fill="#306FC7"/>
</svg>
