<svg width="40" height="40" viewBox="0 0 40 40" fill="none" xmlns="http://www.w3.org/2000/svg">
<g clip-path="url(#clip0_172_199)">
<path d="M17.2 35.7212V29.36C17.2 26.9223 19.0905 25.0052 21.8873 23.9108C20.0836 23.24 18.1744 22.8977 16.25 22.9C12.659 22.9 9.3416 24.0723 6.6607 26.054C7.49196 28.4049 8.88767 30.5158 10.7253 32.2014C12.5629 33.8869 14.7862 35.0956 17.2 35.7212ZM34.072 28.7634C33.3215 27.7507 30.823 26.7 27.65 26.7C23.8386 26.7 21 28.2143 21 29.36V36.2C23.6369 36.2015 26.2288 35.5166 28.5207 34.2127C30.8127 32.9088 32.7258 31.0308 34.072 28.7634ZM16.345 20.05C17.4788 20.05 18.5662 19.5996 19.3679 18.7979C20.1696 17.9962 20.62 16.9088 20.62 15.775C20.62 14.6412 20.1696 13.5538 19.3679 12.7521C18.5662 11.9504 17.4788 11.5 16.345 11.5C15.2112 11.5 14.1238 11.9504 13.3221 12.7521C12.5204 13.5538 12.07 14.6412 12.07 15.775C12.07 16.9088 12.5204 17.9962 13.3221 18.7979C14.1238 19.5996 15.2112 20.05 16.345 20.05ZM27.65 21.95C28.6578 21.95 29.6244 21.5496 30.337 20.837C31.0496 20.1244 31.45 19.1578 31.45 18.15C31.45 17.1422 31.0496 16.1756 30.337 15.463C29.6244 14.7504 28.6578 14.35 27.65 14.35C26.6422 14.35 25.6756 14.7504 24.963 15.463C24.2504 16.1756 23.85 17.1422 23.85 18.15C23.85 19.1578 24.2504 20.1244 24.963 20.837C25.6756 21.5496 26.6422 21.95 27.65 21.95ZM21 40C10.5063 40 2 31.4937 2 21C2 10.5063 10.5063 2 21 2C31.4937 2 40 10.5063 40 21C40 31.4937 31.4937 40 21 40Z" fill="#306FC7"/>
</g>
<defs>
<clipPath id="clip0_172_199">
<rect width="40" height="40" fill="white"/>
</clipPath>
</defs>
</svg>
