<svg width="40" height="40" viewBox="0 0 40 40" fill="none" xmlns="http://www.w3.org/2000/svg">
<path d="M26.6667 3.33334L35 11.6667V35.0133C34.9996 35.452 34.825 35.8725 34.5147 36.1825C34.2043 36.4925 33.7836 36.6667 33.345 36.6667H6.655C6.2173 36.6636 5.79836 36.4885 5.4887 36.1792C5.17903 35.8698 5.00349 35.451 5 35.0133V4.98668C5 4.07334 5.74167 3.33334 6.655 3.33334H26.6667ZM22.5483 24.0767L26.2317 27.76L28.59 25.405L24.9067 21.7217C25.7275 20.3235 26.011 18.6742 25.704 17.0821C25.3971 15.4901 24.5208 14.0644 23.239 13.0716C21.9572 12.0788 20.3576 11.5868 18.7394 11.6878C17.1212 11.7887 15.5952 12.4756 14.4467 13.62C13.2984 14.7673 12.6082 16.2942 12.5054 17.9142C12.4027 19.5342 12.8946 21.136 13.8888 22.4191C14.8829 23.7023 16.3111 24.5786 17.9054 24.8838C19.4997 25.189 21.1506 24.902 22.5483 24.0767ZM21.5183 20.69C21.2108 21.0084 20.843 21.2623 20.4363 21.437C20.0297 21.6117 19.5923 21.7037 19.1497 21.7075C18.7071 21.7114 18.2681 21.627 17.8585 21.4594C17.4488 21.2918 17.0767 21.0443 16.7637 20.7313C16.4507 20.4184 16.2032 20.0462 16.0356 19.6365C15.868 19.2269 15.7837 18.7879 15.7875 18.3453C15.7913 17.9027 15.8833 17.4653 16.058 17.0587C16.2327 16.652 16.4866 16.2842 16.805 15.9767C17.4337 15.3695 18.2757 15.0335 19.1497 15.0411C20.0237 15.0487 20.8597 15.3993 21.4777 16.0173C22.0958 16.6353 22.4463 17.4714 22.4539 18.3453C22.4615 19.2193 22.1255 20.0613 21.5183 20.69Z" fill="#306FC7"/>
</svg>
