<svg width="22" height="22" viewBox="0 0 22 22" fill="none" xmlns="http://www.w3.org/2000/svg">
<path d="M18.8357 2.12299C18.3064 1.63641 16.1638 0.0785073 11.3877 0.0571661C11.3877 0.0571661 5.75786 -0.284292 3.01339 2.23396C1.48536 3.76199 0.947567 5.99427 0.89208 8.76862C0.836593 11.5387 0.764033 16.7331 5.77066 18.1416H5.77493L5.77066 20.2886C5.77066 20.2886 5.74079 21.1593 6.31273 21.3343C7.00418 21.5477 7.41393 20.8861 8.07551 20.1733C8.43831 19.7806 8.93769 19.2087 9.31756 18.7691C12.7407 19.055 15.3742 18.3977 15.673 18.2996C16.3644 18.0734 20.2784 17.574 20.9143 12.3795C21.5716 7.03572 20.5942 3.65101 18.8357 2.12299ZM19.4162 12.0039C18.8784 16.3405 15.7071 16.6136 15.1224 16.8014C14.8748 16.8825 12.5614 17.4587 9.65048 17.2667C9.65048 17.2667 7.48222 19.8831 6.80784 20.5617C6.70114 20.6684 6.57736 20.7111 6.49626 20.6898C6.38102 20.6599 6.34687 20.5233 6.35114 20.3227C6.35114 20.0325 6.36822 16.7502 6.36822 16.7502C6.36395 16.7502 6.36395 16.7502 6.36822 16.7502C2.12987 15.5764 2.37742 11.1546 2.42437 8.84118C2.47132 6.5278 2.90668 4.62844 4.19996 3.35224C6.5176 1.25227 11.3023 1.56385 11.3023 1.56385C15.34 1.58092 17.2735 2.79737 17.7217 3.20285C19.2113 4.48332 19.9711 7.5351 19.4162 12.0039Z" fill="white"/>
<path d="M13.3553 8.92233C13.2145 8.92233 13.095 8.81135 13.0864 8.66623C13.0395 7.74856 12.6084 7.3004 11.7291 7.25345C11.5797 7.24491 11.4645 7.11686 11.473 6.96748C11.4816 6.81809 11.6096 6.70285 11.759 6.71138C12.92 6.77541 13.5687 7.44125 13.6285 8.63635C13.637 8.78574 13.5218 8.91379 13.3724 8.91806C13.3639 8.92233 13.3596 8.92233 13.3553 8.92233Z" fill="white"/>
<path d="M14.7382 9.38339H14.7339C14.5846 9.37913 14.465 9.25535 14.4693 9.10596C14.4907 8.18402 14.226 7.43708 13.6626 6.82246C13.1035 6.20783 12.3309 5.87491 11.3108 5.80235C11.1614 5.78955 11.0505 5.6615 11.0633 5.51211C11.0761 5.36272 11.2041 5.25175 11.3535 5.26456C12.5059 5.34992 13.4151 5.75113 14.0638 6.45966C14.7169 7.17245 15.0327 8.06451 15.0114 9.11876C15.0071 9.26815 14.8833 9.38339 14.7382 9.38339Z" fill="white"/>
<path d="M16.1553 9.93806C16.0059 9.93806 15.8864 9.81855 15.8864 9.66916C15.8736 8.01735 15.3998 6.75823 14.4352 5.81495C13.4833 4.88448 12.2754 4.4107 10.8541 4.3979C10.7047 4.3979 10.5852 4.27412 10.5852 4.12473C10.5852 3.97535 10.709 3.85583 10.8541 3.85583C12.4206 3.86864 13.7522 4.39363 14.8065 5.42654C15.865 6.45945 16.4071 7.88504 16.4242 9.66062C16.4284 9.81428 16.3089 9.93806 16.1553 9.93806C16.1595 9.93806 16.1595 9.93806 16.1553 9.93806Z" fill="white"/>
<path d="M11.7931 12.2643C11.7931 12.2643 12.173 12.2984 12.3779 12.0466L12.7748 11.5472C12.9669 11.2997 13.4321 11.1418 13.8846 11.3936C14.1364 11.5344 14.5931 11.8161 14.8748 12.0253C15.1778 12.2472 15.7925 12.7594 15.7967 12.7637C16.0912 13.0112 16.1595 13.374 15.9589 13.7624C15.9589 13.7624 15.9589 13.7667 15.9589 13.771C15.7541 14.1338 15.4766 14.4752 15.1309 14.7911C15.1266 14.7911 15.1266 14.7954 15.1224 14.7954C14.8364 15.0344 14.5547 15.171 14.2815 15.2008C14.2474 15.2094 14.209 15.2094 14.1577 15.2094C14.0382 15.2094 13.9187 15.1923 13.7992 15.1539L13.7907 15.1411C13.3638 15.0216 12.6553 14.7228 11.4773 14.0698C10.709 13.6472 10.073 13.2161 9.53098 12.785C9.245 12.5588 8.95477 12.307 8.65599 12.0082C8.64745 11.9997 8.63465 11.9869 8.62611 11.9783C8.61758 11.9698 8.60477 11.957 8.59623 11.9484C8.5877 11.9399 8.57489 11.9271 8.56636 11.9186C8.55782 11.91 8.54502 11.8972 8.53648 11.8887C8.24197 11.5899 7.98588 11.2997 7.75966 11.0137C7.32857 10.4759 6.89748 9.83568 6.47492 9.0674C5.82189 7.8851 5.52311 7.17657 5.4036 6.75402L5.3908 6.74548C5.35238 6.62597 5.33531 6.50646 5.33531 6.38695C5.33531 6.33573 5.33531 6.29732 5.34384 6.26317C5.37799 5.98573 5.51457 5.7083 5.74933 5.42233C5.74933 5.41806 5.75359 5.41806 5.75359 5.41379C6.06944 5.0638 6.4109 4.79063 6.7737 4.58576C6.7737 4.58576 6.77797 4.58576 6.78224 4.58576C7.16638 4.38515 7.52918 4.45344 7.781 4.74795C7.781 4.74795 8.29746 5.36684 8.51941 5.66989C8.72855 5.95586 9.01025 6.40829 9.1511 6.66011C9.40293 7.11255 9.245 7.57778 8.99745 7.76985L8.49806 8.1668C8.24624 8.37167 8.28039 8.75155 8.28039 8.75155C8.28039 8.75155 9.01879 11.56 11.7931 12.2643Z" fill="white"/>
</svg>
